<svg width="94" height="94" viewBox="0 0 94 94" fill="none" xmlns="http://www.w3.org/2000/svg">
<g filter="url(#filter0_d)">
<circle cx="47" cy="43" r="43" fill="#F30606"/>
<circle cx="47" cy="43" r="41.5" stroke="black" stroke-width="3"/>
</g>
<path d="M24.0338 55.9745L34.8385 45.1699L38.1033 48.4347L27.2986 59.2394L24.0338 55.9745Z" fill="#FB6A3B"/>
<path d="M25.5106 57.4513L36.3152 46.6467L38.1034 48.4349L27.2988 59.2395L25.5106 57.4513Z" fill="#FB5532"/>
<path d="M38.1092 48.4369L35.4434 51.1027C34.8555 50.6246 34.282 50.1061 33.7279 49.5521C33.1747 48.9988 32.6554 48.4246 32.1781 47.8374L34.8438 45.1716L38.1092 48.4369Z" fill="#FB5532"/>
<path d="M25.8735 60.4434L22.8371 57.407C22.2574 56.8273 22.2574 55.8874 22.8371 55.3078L22.8636 55.2812C23.4433 54.7015 24.3832 54.7015 24.9629 55.2812L27.9993 58.3176C28.579 58.8973 28.579 59.8372 27.9993 60.4168L27.9727 60.4434C27.393 61.0231 26.4531 61.0231 25.8735 60.4434Z" fill="#FCA62F"/>
<path d="M27.9863 60.43C27.6927 60.7236 27.3087 60.8704 26.9239 60.8704C26.5391 60.8704 26.1536 60.7236 25.86 60.43L24.0715 58.6415C24.3652 58.9351 24.7499 59.0812 25.1346 59.0812C25.5194 59.0812 25.9041 58.9351 26.1977 58.6415C26.7843 58.0549 26.7842 57.1032 26.1971 56.5159L27.9855 58.3044C28.5728 58.8918 28.5728 59.8434 27.9863 60.43Z" fill="#F98824"/>
<path d="M62.34 25.5279L38.9146 48.9532L34.3273 44.3658L57.7528 20.9403C58.0424 20.6507 58.4124 20.4547 58.8147 20.3776L63.1296 19.5518C63.4844 19.484 63.7958 19.7953 63.728 20.1502L62.9028 24.4655C62.8257 24.8681 62.6297 25.2381 62.34 25.5279Z" fill="#B5DBFD"/>
<path d="M62.34 25.5281L38.9148 48.9533L37.1262 47.1647L60.5514 23.7395C60.8415 23.4495 61.0367 23.0792 61.1141 22.6764L61.6587 19.8334L63.1296 19.5514C63.484 19.4834 63.7958 19.795 63.7285 20.1502L62.9025 24.465C62.8252 24.8678 62.6299 25.2381 62.34 25.5281Z" fill="#8DCAFC"/>
<path d="M46.5522 50.17C44.9086 50.3899 42.6479 49.6137 40.376 48.0549C40.1973 47.9323 40.1134 47.7114 40.1682 47.5017L41.5021 42.4025C41.6011 42.0242 41.2562 41.6794 40.878 41.7783L35.7787 43.1123C35.5691 43.1671 35.3482 43.0831 35.2256 42.9044C33.6668 40.6325 32.8906 38.3718 33.1105 36.7283C32.4523 36.8165 31.894 37.0639 31.4732 37.4848C29.5625 39.3955 31.2193 44.1507 35.1745 48.1059C39.1298 52.0611 43.885 53.7181 45.7957 51.8073C46.2166 51.3865 46.4639 50.8281 46.5522 50.17Z" fill="#FCA62F"/>
<path d="M46.5527 50.1702C46.478 50.7237 46.2913 51.2063 45.9834 51.5955C43.9513 51.2445 40.7321 50.1086 38.7626 48.9867C38.1736 48.6515 37.8815 47.9645 38.0532 47.3093L39.2041 42.9093C39.275 42.6386 39.1182 42.3837 38.8839 42.2998L40.8777 41.7781C41.2567 41.6791 41.6011 42.0245 41.5022 42.4025L40.1683 47.5017C40.1132 47.7116 40.1972 47.9319 40.3764 48.0551C42.6483 49.6139 44.909 50.3896 46.5527 50.1702Z" fill="#F98824"/>
<path d="M32.0671 39.6569C33.3501 39.6569 34.3902 38.6168 34.3902 37.3338C34.3902 36.0507 33.3501 35.0106 32.0671 35.0106C30.784 35.0106 29.7439 36.0507 29.7439 37.3338C29.7439 38.6168 30.784 39.6569 32.0671 39.6569Z" fill="#BCEA73"/>
<path d="M33.7094 38.9768C32.8236 39.8626 31.3995 39.8838 30.4895 39.0385C31.0288 39.0021 31.5581 38.7779 31.9702 38.3658C32.8772 37.4588 32.8772 35.9872 31.9702 35.0803C31.949 35.059 31.9268 35.0378 31.9046 35.0176C32.552 34.9712 33.2146 35.1954 33.7095 35.6913C34.6174 36.5983 34.6174 38.0689 33.7094 38.9768Z" fill="#99D53B"/>
<path d="M45.9469 53.5366C47.2299 53.5366 48.27 52.4965 48.27 51.2135C48.27 49.9304 47.2299 48.8903 45.9469 48.8903C44.6639 48.8903 43.6237 49.9304 43.6237 51.2135C43.6237 52.4965 44.6639 53.5366 45.9469 53.5366Z" fill="#BCEA73"/>
<path d="M47.59 52.8564C46.7032 53.7422 45.2792 53.7634 44.369 52.918C44.9084 52.8817 45.4376 52.6574 45.8498 52.2453C46.7568 51.3383 46.7568 49.8677 45.8498 48.9598C45.8285 48.9386 45.8073 48.9184 45.7851 48.8981C46.4325 48.8517 47.0951 49.0759 47.59 49.5708C48.497 50.4779 48.497 51.9485 47.59 52.8564Z" fill="#99D53B"/>
<path d="M47.922 29.2152C47.2644 29.889 47.4082 30.9968 48.2126 31.486C50.8782 33.107 55.9848 37.2196 57.6798 45.6195C58.844 51.3883 54.9994 54.7729 51.2261 56.15C50.3806 56.4587 50.529 57.7048 51.4232 57.8068C55.1999 58.2382 60.6583 57.7138 63.7377 52.1579C63.7377 52.1579 63.4559 60.897 48.4784 61.7099C47.4551 61.7654 47.3688 63.2446 48.3794 63.414C57.266 64.904 70.8049 64.4523 70.8049 47.8673C70.8049 29.2157 63.0515 22.3095 59.463 20.112C58.4911 19.5167 57.2382 19.6683 56.4422 20.4839L47.922 29.2152Z" fill="#EAF6FF"/>
<path d="M70.8049 47.8671C70.8049 64.4525 57.2658 64.9044 48.38 63.4144C47.3691 63.2449 47.4548 61.7656 48.4784 61.7101C50.3463 61.6088 51.9854 61.3838 53.4248 61.0683C60.9579 60.7741 68.526 57.3928 68.526 44.9931C68.526 34.2335 65.9462 27.3822 63.0742 23.0892C66.6941 26.9322 70.8049 34.2861 70.8049 47.8671Z" fill="#C4E1FF"/>
<path d="M63.1501 23.1711L62.9027 24.4654C62.8248 24.8676 62.6301 25.2387 62.3398 25.5279L52.6457 35.2221C52.0448 34.5413 51.439 33.9492 50.8557 33.436L60.5518 23.7399C60.841 23.4496 61.0368 23.0796 61.1137 22.6764L61.3465 21.4648C61.9181 21.9391 62.5278 22.503 63.1501 23.1711Z" fill="#C4E1FF"/>
<path d="M37.1205 45.1275L37.1018 45.148C36.83 45.4461 36.8513 45.908 37.1494 46.1798C37.2895 46.3076 37.4656 46.3705 37.6413 46.3705C37.8395 46.3705 38.0371 46.2902 38.1813 46.1322L38.2 46.1117C38.4718 45.8136 38.4504 45.3517 38.1523 45.0799C37.8544 44.8082 37.3924 44.8294 37.1205 45.1275Z" fill="black"/>
<path d="M71.5354 47.8674C71.5354 43.5342 71.1145 39.529 70.2847 35.9626C70.1933 35.5697 69.8008 35.3249 69.4078 35.4168C69.0148 35.5081 68.7705 35.9008 68.8619 36.2937C69.6665 39.7516 70.0745 43.6455 70.0745 47.8674C70.0745 53.3348 68.5505 57.3969 65.5445 59.9407C60.9712 63.8111 53.7515 63.5742 48.5004 62.6938C48.4508 62.6856 48.3892 62.6752 48.3955 62.5624C48.402 62.4458 48.4691 62.4421 48.5181 62.4395C52.0221 62.2493 55.0354 61.6115 57.4743 60.5438C59.4637 59.6729 61.081 58.515 62.2814 57.1022C64.3652 54.6496 64.4646 52.2813 64.4679 52.1817C64.4788 51.8445 64.2572 51.5438 63.9321 51.454C63.6069 51.3645 63.2626 51.5089 63.0991 51.804C60.255 56.9352 55.2251 57.5061 51.5063 57.0813C51.4725 57.0774 51.4097 57.0703 51.3977 56.9697C51.3858 56.8696 51.4449 56.8479 51.4767 56.8363C53.7305 56.0138 55.6536 54.6393 56.8919 52.9664C58.4421 50.8716 58.9623 48.2813 58.396 45.4753C57.4851 40.9615 55.6271 37.6444 53.6457 35.2551L56.4394 32.4614C57.521 33.5951 60.7854 37.4665 60.7854 42.8866C60.7854 43.2899 61.1124 43.617 61.5158 43.617C61.9192 43.617 62.2462 43.2899 62.2462 42.8866C62.2462 36.8748 58.6957 32.6884 57.4743 31.4264L59.2731 29.6276C59.5584 29.3424 59.5584 28.8799 59.2731 28.5947C58.9879 28.3095 58.5254 28.3095 58.2402 28.5947L52.6729 34.162C52.2411 33.7098 51.81 33.299 51.3874 32.9266L59.2731 25.0409C59.5584 24.7556 59.5584 24.2931 59.2731 24.008C58.9879 23.7227 58.5254 23.7227 58.2402 24.008L50.2522 31.996C49.6526 31.5398 49.0899 31.1648 48.5923 30.8622C48.3988 30.7446 48.2717 30.5489 48.2435 30.3253C48.2155 30.1041 48.2889 29.8854 48.4449 29.7255L56.9652 20.9942C57.5245 20.421 58.3948 20.3144 59.0817 20.7351C59.9589 21.2723 61.1216 22.1218 62.3619 23.4046L62.1854 24.3286C62.1357 24.5889 62.0108 24.8248 61.8235 25.0115L60.5335 26.3014C60.2483 26.5867 60.2483 27.0492 60.5335 27.3343C60.6761 27.4769 60.8631 27.5483 61.05 27.5483C61.2369 27.5483 61.4239 27.477 61.5665 27.3343L62.8555 26.0453C63.2068 25.6952 63.454 25.2621 63.5785 24.7843C65.1852 26.7784 66.8094 29.5303 68.0302 33.288C68.1548 33.6716 68.5668 33.8821 68.9505 33.757C69.3342 33.6324 69.5441 33.2202 69.4195 32.8366C67.943 28.2916 65.8878 25.1243 63.9356 22.9532L64.4454 20.2877C64.5227 19.883 64.395 19.4676 64.1037 19.1763C63.8124 18.885 63.3969 18.7571 62.9922 18.8348L59.7772 19.4501C58.5157 18.7183 56.9401 18.9282 55.9195 19.9742L47.3993 28.7055C46.9306 29.1858 46.71 29.843 46.794 30.5085C46.8069 30.6102 46.8273 30.7097 46.8535 30.807L42.7488 34.9117C42.4636 35.197 42.4636 35.6595 42.7488 35.9446C42.8914 36.0872 43.0784 36.1586 43.2653 36.1586C43.4522 36.1586 43.6392 36.0873 43.7817 35.9446L47.7025 32.0239C47.7449 32.054 47.7882 32.0832 47.8332 32.1105C48.2491 32.3634 48.7141 32.6711 49.2089 33.0392L41.2015 41.0466C41.0357 41.0207 40.8635 41.0275 40.6931 41.072L37.9321 41.7942L41.5325 38.1938C41.8178 37.9086 41.8178 37.4461 41.5325 37.1609C41.2473 36.8757 40.7848 36.8757 40.4996 37.1609L35.5649 42.0957C34.9927 41.2079 34.541 40.3165 34.2396 39.4793C34.8077 38.9041 35.1206 38.1433 35.1206 37.3342C35.1206 36.5185 34.803 35.7517 34.2262 35.175C33.0356 33.9845 31.0984 33.9845 29.9077 35.175C28.7171 36.3656 28.7171 38.3028 29.9077 39.4934C29.9221 39.5078 29.9371 39.5213 29.9517 39.5354C29.8952 41.4828 30.905 43.9546 32.6636 46.3191L24.7144 54.2682C23.9212 53.9614 22.9861 54.1262 22.347 54.7653L22.3205 54.7918C21.9023 55.2096 21.6719 55.7657 21.6719 56.3574C21.6719 56.949 21.9023 57.5052 22.3206 57.9235L25.357 60.9599C25.7888 61.3918 26.3559 61.6076 26.9231 61.6076C27.4903 61.6076 28.0574 61.3917 28.4892 60.9599L28.5157 60.9334C28.934 60.5151 29.1644 59.959 29.1644 59.3672C29.1644 59.0882 29.1115 58.8178 29.0135 58.5653L36.9618 50.617C39.2632 52.3288 41.6664 53.3313 43.5888 53.3313C43.6415 53.3313 43.6934 53.3296 43.7453 53.3282C43.7595 53.343 43.7731 53.3581 43.7876 53.3726C44.3643 53.9493 45.1312 54.267 45.9468 54.267C46.7625 54.267 47.5293 53.9494 48.106 53.3726C48.6828 52.7958 49.0005 52.0291 49.0005 51.2134C49.0005 50.3977 48.6829 49.6309 48.106 49.0541C46.9201 47.8682 44.9935 47.864 43.8017 49.0408C42.9645 48.7394 42.073 48.2877 41.1853 47.7155L52.6075 36.2934C54.4249 38.5175 56.1222 41.5924 56.964 45.7641C57.2953 47.4059 57.8428 52.9577 50.9758 55.4639C50.2719 55.7208 49.8584 56.3951 49.947 57.1417C50.0356 57.8885 50.5956 58.4476 51.3404 58.5326C53.8226 58.8161 56.0908 58.6091 58.0818 57.9177C59.0879 57.5682 60.0126 57.0977 60.8524 56.5092C58.3855 59.1292 54.1051 60.6732 48.439 60.9808C47.6149 61.0255 46.9831 61.6563 46.937 62.4807C46.8909 63.3029 47.4469 63.9985 48.2588 64.1346C50.1704 64.4551 52.3326 64.6916 54.5502 64.6916C58.7782 64.6916 63.2081 63.8319 66.4883 61.056C69.8373 58.2215 71.5354 53.7844 71.5354 47.8674ZM62.6915 21.6813C62.2636 21.2802 61.8487 20.9266 61.4548 20.6161L62.9499 20.33L62.6915 21.6813ZM51.6394 35.1954L41.4865 45.3483L42.2087 42.5874C42.2532 42.4172 42.26 42.2451 42.2342 42.0794L50.3522 33.9614C50.7744 34.33 51.2066 34.7402 51.6394 35.1954ZM30.9407 36.2074C31.2513 35.8969 31.6591 35.7417 32.0669 35.7417C32.4748 35.7417 32.8827 35.8969 33.1932 36.2074C33.494 36.5082 33.6597 36.9082 33.6597 37.3336C33.6597 37.7591 33.494 38.1591 33.1932 38.4598C32.8923 38.7605 32.4923 38.9263 32.0669 38.9263C31.6416 38.9263 31.2416 38.7606 30.9407 38.4598C30.3198 37.8389 30.3198 36.8284 30.9407 36.2074ZM30.3847 55.128L29.0891 51.959L31.167 49.8811L32.4626 53.0501L30.3847 55.128ZM25.8813 55.1668L27.9688 53.0794L29.2645 56.2484L28.1137 57.3993L25.8813 55.1668ZM27.4827 59.9003L27.4562 59.9268C27.1622 60.2208 26.6839 60.2208 26.39 59.9268L23.3536 56.8905C23.2112 56.7481 23.1327 56.5588 23.1327 56.3574C23.1327 56.156 23.2111 55.9667 23.3536 55.8242L23.3801 55.7977C23.527 55.6507 23.7202 55.5772 23.9132 55.5772C24.1062 55.5772 24.2993 55.6506 24.4463 55.7977L27.4827 58.8341C27.6251 58.9765 27.7036 59.1658 27.7036 59.3672C27.7036 59.5686 27.6251 59.7579 27.4827 59.9003ZM33.5829 51.9299L32.2872 48.7608L33.5829 47.4651C33.9217 47.858 34.2805 48.2447 34.6581 48.6223C35.0357 48.9999 35.4226 49.3584 35.8154 49.6973L33.5829 51.9299ZM35.691 47.5894C33.3274 45.2258 31.726 42.4412 31.4522 40.3254C31.6524 40.3661 31.858 40.3872 32.067 40.3872C32.3776 40.3872 32.6811 40.3409 32.9698 40.252C33.3584 41.2489 33.922 42.2954 34.6233 43.3175C34.9198 43.7496 35.4584 43.9511 35.9637 43.8188L40.7009 42.5796L39.4616 47.3168C39.3296 47.8221 39.531 48.3606 39.9629 48.6571C40.9859 49.359 42.0331 49.9227 43.0306 50.3113C42.8792 50.8036 42.8549 51.3264 42.9574 51.8286C40.8414 51.556 38.0556 49.954 35.691 47.5894ZM45.9467 49.6213C46.3546 49.6213 46.7625 49.7766 47.0729 50.0871C47.3738 50.3879 47.5394 50.7879 47.5394 51.2133C47.5394 51.6388 47.3738 52.0387 47.0729 52.3395C46.7721 52.6402 46.3721 52.806 45.9467 52.806C45.5213 52.806 45.1213 52.6403 44.8205 52.3395C44.1996 51.7185 44.1996 50.708 44.8205 50.087C45.1311 49.7766 45.5389 49.6213 45.9467 49.6213Z" fill="black"/>
<path d="M64.633 48.9944C64.695 49.0106 64.7572 49.0183 64.8184 49.0183C65.1426 49.0183 65.4387 48.8009 65.5246 48.4726C66.7322 43.8579 66.1179 39.6955 65.3899 37.0162C64.6003 34.11 63.53 32.3023 63.4848 32.2267C63.2777 31.8806 62.8293 31.7677 62.483 31.9747C62.1368 32.1818 62.024 32.6303 62.2311 32.9765C62.2717 33.0444 66.2676 39.8629 64.1113 48.1027C64.0092 48.4931 64.2428 48.8923 64.633 48.9944Z" fill="black"/>
<path d="M54.7131 49.3024C54.7494 49.3078 54.7854 49.3104 54.821 49.3104C55.177 49.3104 55.4889 49.0497 55.5426 48.6869C56.2798 43.7113 53.3454 39.9067 53.2201 39.7471C52.9713 39.4303 52.5132 39.3754 52.196 39.6235C51.8787 39.8717 51.8227 40.3305 52.0703 40.6483C52.0971 40.6827 54.7402 44.1341 54.0975 48.4728C54.0385 48.8719 54.3141 49.2433 54.7131 49.3024Z" fill="black"/>
<path d="M70.5221 60.5795C70.2002 60.3373 69.7425 60.4021 69.4996 60.7236C69.4658 60.7683 66.0562 65.2025 60.2325 65.7296C59.8308 65.7659 59.5345 66.1211 59.571 66.523C59.6053 66.9023 59.9239 67.1875 60.2975 67.1875C60.3196 67.1875 60.3418 67.1866 60.3642 67.1845C66.8524 66.5973 70.515 61.8046 70.6677 61.6009C70.9095 61.2784 70.8441 60.8217 70.5221 60.5795Z" fill="black"/>
<path d="M67.8846 26.051C68.0238 26.2694 68.2599 26.3888 68.5011 26.3888C68.6355 26.3888 68.7715 26.3518 68.8931 26.2742C69.2333 26.0573 69.3332 25.6058 69.1164 25.2656C68.1367 23.7293 67.2487 22.7114 67.2114 22.6688C66.9455 22.3655 66.4844 22.3352 66.181 22.6009C65.8777 22.8666 65.8471 23.328 66.1127 23.6315C66.121 23.6411 66.9685 24.6143 67.8846 26.051Z" fill="black"/>
<path d="M51.5336 43.3712C51.154 43.5077 50.9571 43.9262 51.0936 44.3058C51.0955 44.311 51.283 44.8348 51.4471 45.5551C51.5243 45.8938 51.8252 46.1233 52.1586 46.1233C52.2124 46.1233 52.267 46.1174 52.3216 46.1049C52.715 46.0152 52.9611 45.6237 52.8715 45.2304C52.6878 44.4246 52.4771 43.8358 52.4682 43.8111C52.3316 43.4315 51.9134 43.2344 51.5336 43.3712Z" fill="black"/>
<defs>
<filter id="filter0_d" x="0" y="0" width="94" height="94" filterUnits="userSpaceOnUse" color-interpolation-filters="sRGB">
<feFlood flood-opacity="0" result="BackgroundImageFix"/>
<feColorMatrix in="SourceAlpha" type="matrix" values="0 0 0 0 0 0 0 0 0 0 0 0 0 0 0 0 0 0 127 0" result="hardAlpha"/>
<feOffset dy="4"/>
<feGaussianBlur stdDeviation="2"/>
<feComposite in2="hardAlpha" operator="out"/>
<feColorMatrix type="matrix" values="0 0 0 0 0 0 0 0 0 0 0 0 0 0 0 0 0 0 0.25 0"/>
<feBlend mode="normal" in2="BackgroundImageFix" result="effect1_dropShadow"/>
<feBlend mode="normal" in="SourceGraphic" in2="effect1_dropShadow" result="shape"/>
</filter>
</defs>
</svg>
