<svg width="94" height="94" viewBox="0 0 94 94" fill="none" xmlns="http://www.w3.org/2000/svg">
<g filter="url(#filter0_d)">
<circle cx="47" cy="43" r="43" fill="#B2F987"/>
<circle cx="47" cy="43" r="41.5" stroke="black" stroke-width="3"/>
</g>
<path d="M56.1079 27.4453C52.7051 27.4453 49.6365 28.942 47.4688 31.3406C45.3011 28.942 42.2325 27.4453 38.8297 27.4453C32.2619 27.4453 26.9375 33.0202 26.9375 39.8973C26.9375 49.5302 47.4688 65.5544 47.4688 65.5544C47.4688 65.5544 68.0001 49.5303 68.0001 39.8973C68.0001 33.0202 62.6757 27.4453 56.1079 27.4453Z" fill="white"/>
<path d="M65.7501 53.3217C69.7887 53.3217 73.0626 49.9795 73.0626 45.8568C73.0626 41.7341 69.7887 38.392 65.7501 38.392C61.7115 38.392 58.4376 41.7341 58.4376 45.8568C58.4376 49.9795 61.7115 53.3217 65.7501 53.3217Z" fill="#EF9A9A"/>
<path d="M57.7681 54.9468L57.7415 54.9746C57.3791 55.3521 57.3852 55.958 57.7551 56.328C57.9375 56.5105 58.1744 56.6014 58.4111 56.6014C58.6542 56.6014 58.8972 56.5054 59.0809 56.3142L59.1075 56.2864C59.4698 55.9089 59.4638 55.303 59.0939 54.933C58.7241 54.5631 58.1305 54.5694 57.7681 54.9468Z" fill="black"/>
<path d="M69.1789 44.8995H66.6876V42.3563C66.6876 41.8277 66.2678 41.3992 65.7501 41.3992C65.2323 41.3992 64.8125 41.8277 64.8125 42.3563V44.8995H62.3212C61.8034 44.8995 61.3837 45.3279 61.3837 45.8565C61.3837 46.3851 61.8034 46.8136 62.3212 46.8136H64.8125V49.3568C64.8125 49.8853 65.2323 50.3138 65.7501 50.3138C66.2678 50.3138 66.6876 49.8853 66.6876 49.3568V46.8136H69.1789C69.6967 46.8136 70.1164 46.3851 70.1164 45.8565C70.1164 45.3279 69.6967 44.8995 69.1789 44.8995Z" fill="black"/>
<path d="M68.8151 38.0376C67.9395 31.4312 62.5294 26.4883 56.1078 26.4883C52.8662 26.4883 49.8338 27.7218 47.4688 29.9828C45.1037 27.7218 42.0713 26.4883 38.8298 26.4883C31.7554 26.4883 26 32.5035 26 39.8973C26 41.3581 26.4175 42.9955 27.248 44.8029H26.9375C26.4197 44.8029 26 45.2314 26 45.76C26 46.2885 26.4197 46.717 26.9375 46.717H28.2464C29.9974 49.7431 32.7664 53.1843 36.5421 57.0169C41.659 62.2108 46.8475 66.2743 46.8994 66.3147C47.0674 66.4459 47.2681 66.5115 47.4688 66.5115C47.6695 66.5115 47.8701 66.4459 48.0382 66.3147C48.0778 66.2838 52.0461 63.1775 56.4437 58.9449C56.8205 58.5823 56.8379 57.9766 56.4827 57.592C56.1276 57.2075 55.5342 57.1896 55.1574 57.5522C51.8036 60.7802 48.7073 63.3396 47.4689 64.3395C45.9972 63.1509 41.9001 59.7579 37.8508 55.646C34.6089 52.3539 32.1271 49.3538 30.4493 46.717H38.8424C39.2606 46.717 39.6282 46.4342 39.7435 46.0239L41.3815 40.1954L45.9175 55.0311C46.0398 55.4308 46.4023 55.7031 46.8124 55.7031C47.2226 55.7031 47.5851 55.4308 47.7073 55.0311L50.2193 46.8128H54.4047C54.9225 46.8128 55.3422 46.3843 55.3422 45.8558C55.3422 45.3272 54.9225 44.8987 54.4047 44.8987H49.5298C49.1196 44.8987 48.757 45.1709 48.6349 45.5707L46.8122 51.5335L42.2385 36.5745C42.1151 36.1709 41.7478 35.8968 41.3327 35.9026C40.9186 35.9075 40.5566 36.1892 40.4423 36.5957L38.1358 44.803H29.3398C28.3707 42.9353 27.875 41.2891 27.875 39.8973C27.875 33.5589 32.7893 28.4023 38.8298 28.4023C41.8658 28.4023 44.6892 29.6763 46.7797 31.9895C46.9573 32.1859 47.207 32.2976 47.4688 32.2976C47.7305 32.2976 47.9804 32.1859 48.1579 31.9895C50.2484 29.6763 53.0718 28.4023 56.1078 28.4023C61.3303 28.4023 65.7704 32.2471 66.8258 37.5061C66.4735 37.4591 66.1146 37.4345 65.75 37.4345C61.2009 37.4345 57.5 41.2126 57.5 45.8564C57.5 50.5002 61.2009 54.2783 65.75 54.2783C70.299 54.2783 74 50.5002 74 45.8564C74.0001 42.3177 71.8509 39.2822 68.8151 38.0376ZM65.7501 52.3643C62.2349 52.3643 59.3751 49.4448 59.3751 45.8564C59.3751 42.268 62.2349 39.3486 65.7501 39.3486C69.2652 39.3486 72.1251 42.268 72.1251 45.8564C72.1251 49.4448 69.2652 52.3643 65.7501 52.3643Z" fill="black"/>
<defs>
<filter id="filter0_d" x="0" y="0" width="94" height="94" filterUnits="userSpaceOnUse" color-interpolation-filters="sRGB">
<feFlood flood-opacity="0" result="BackgroundImageFix"/>
<feColorMatrix in="SourceAlpha" type="matrix" values="0 0 0 0 0 0 0 0 0 0 0 0 0 0 0 0 0 0 127 0" result="hardAlpha"/>
<feOffset dy="4"/>
<feGaussianBlur stdDeviation="2"/>
<feComposite in2="hardAlpha" operator="out"/>
<feColorMatrix type="matrix" values="0 0 0 0 0 0 0 0 0 0 0 0 0 0 0 0 0 0 0.25 0"/>
<feBlend mode="normal" in2="BackgroundImageFix" result="effect1_dropShadow"/>
<feBlend mode="normal" in="SourceGraphic" in2="effect1_dropShadow" result="shape"/>
</filter>
</defs>
</svg>
