<svg width="94" height="94" viewBox="0 0 94 94" fill="none" xmlns="http://www.w3.org/2000/svg">
<g filter="url(#filter0_d)">
<circle cx="47" cy="43" r="43" fill="#0681F3"/>
<circle cx="47" cy="43" r="41.5" stroke="black" stroke-width="3"/>
</g>
<g clip-path="url(#clip0)">
<path d="M70.7154 22.1118L54.0122 39.2433L55.1237 40.3321C55.1237 40.3321 50.169 43.2924 48.4954 45.0558L41.002 52.9497L38.9903 50.98L37.5573 49.5762L39.345 47.9482C41.0644 46.2639 42.3795 42.9629 42.3795 42.9629L43.5544 44.1138L69.0389 20.4629C69.2687 20.2501 69.562 20.1432 69.8562 20.1432C70.1611 20.1432 70.465 20.2577 70.6969 20.4848C70.7183 20.5058 70.7388 20.5278 70.7583 20.5497C71.1528 20.9991 71.1411 21.6757 70.7154 22.1118Z" fill="white"/>
<path d="M52.4193 27.8935L54.2285 27.5343C55.0826 27.3646 55.0826 26.1689 54.2285 25.9993L52.4193 25.64C50.6364 25.286 49.2431 23.921 48.8816 22.1746L48.5149 20.4023C48.3417 19.5656 47.1211 19.5656 46.9479 20.4023L46.5812 22.1746C46.2198 23.921 44.8263 25.286 43.0435 25.64L41.2344 25.9993C40.3802 26.169 40.3802 27.3647 41.2344 27.5343L43.0435 27.8935C44.8264 28.2475 46.2197 29.6126 46.5812 31.359L46.9479 33.1313C47.1212 33.968 48.3418 33.968 48.5149 33.1313L48.8816 31.359C49.2431 29.6126 50.6364 28.2477 52.4193 27.8935Z" fill="#F9D366"/>
<path d="M68.5445 49.9906L70.5569 49.591C71.5069 49.4023 71.5069 48.0722 70.5569 47.8836L68.5445 47.4839C66.5615 47.0901 65.0116 45.5718 64.6096 43.6293L64.2016 41.658C64.009 40.7274 62.6512 40.7274 62.4587 41.658L62.0507 43.6293C61.6486 45.5719 60.0987 47.0901 58.1157 47.4839L56.1034 47.8836C55.1533 48.0722 55.1533 49.4023 56.1034 49.591L58.1157 49.9906C60.0988 50.3845 61.6486 51.9028 62.0507 53.8453L62.4587 55.8165C62.6512 56.7472 64.009 56.7472 64.2016 55.8165L64.6096 53.8453C65.0116 51.9028 66.5614 50.3845 68.5445 49.9906Z" fill="#F9D366"/>
<path d="M41.5531 53.49C39.9458 51.9156 38.3385 50.341 36.7312 48.7666C32.8878 53.466 28.528 57.7368 23.7306 61.5018C25.3379 63.0763 26.9452 64.6508 28.5524 66.2252C32.396 61.5257 36.7557 57.2549 41.5531 53.49Z" fill="white"/>
<path d="M38.2412 50.2457C37.7378 49.7525 37.2346 49.2596 36.7312 48.7665C32.8877 53.466 28.5279 57.7368 23.7305 61.5018C24.2339 61.9949 24.7371 62.4879 25.2405 62.981C30.038 59.216 34.3978 54.9452 38.2412 50.2457Z" fill="white"/>
<path d="M70.7583 20.5497L45.7786 44.5855L38.9905 50.9802L37.5576 49.5764L39.3452 47.9484C41.0646 46.2641 42.3798 42.9631 42.3798 42.9631L43.5546 44.114L69.0389 20.4629C69.2688 20.2501 69.562 20.1432 69.8562 20.1432C70.1611 20.1432 70.465 20.2577 70.6969 20.4848C70.7184 20.5058 70.7388 20.5278 70.7583 20.5497Z" fill="white"/>
<path d="M40.3884 35.1567C40.7919 35.1567 41.119 34.8362 41.119 34.441V32.5443C41.119 32.1491 40.7919 31.8286 40.3884 31.8286C39.9849 31.8286 39.6578 32.1491 39.6578 32.5443V34.441C39.6578 34.8362 39.9849 35.1567 40.3884 35.1567Z" fill="black"/>
<path d="M40.3884 40.263C40.7919 40.263 41.119 39.9425 41.119 39.5473V37.6506C41.119 37.2554 40.7919 36.9349 40.3884 36.9349C39.9849 36.9349 39.6578 37.2554 39.6578 37.6506V39.5473C39.6578 39.9424 39.9849 40.263 40.3884 40.263Z" fill="black"/>
<path d="M42.0267 35.3301C41.6232 35.3301 41.2961 35.6505 41.2961 36.0458C41.2961 36.441 41.6232 36.7615 42.0267 36.7615H43.9629C44.3663 36.7615 44.6934 36.441 44.6934 36.0458C44.6934 35.6505 44.3663 35.3301 43.9629 35.3301H42.0267Z" fill="black"/>
<path d="M36.814 36.7615H38.7502C39.1537 36.7615 39.4808 36.441 39.4808 36.0458C39.4808 35.6505 39.1537 35.3301 38.7502 35.3301H36.814C36.4105 35.3301 36.0834 35.6505 36.0834 36.0458C36.0834 36.441 36.4105 36.7615 36.814 36.7615Z" fill="black"/>
<path d="M41.089 28.2357L42.8982 28.5949C44.3966 28.8926 45.5611 30.0334 45.8649 31.5012L46.2317 33.2735C46.378 33.9806 46.9947 34.4744 47.7313 34.4744C48.4679 34.4744 49.0846 33.9805 49.231 33.2735L49.5977 31.5012C49.9016 30.0334 51.0661 28.8925 52.5645 28.5949L54.3737 28.2357C55.0956 28.0923 55.5997 27.4882 55.5997 26.7666C55.5997 26.045 55.0955 25.4411 54.3737 25.2977L52.5645 24.9384C51.0661 24.6408 49.9015 23.5 49.5977 22.0322L49.231 20.2599C49.0846 19.5527 48.468 19.059 47.7313 19.059C46.9948 19.059 46.378 19.5528 46.2317 20.2599L45.8649 22.0322C45.561 23.5 44.3966 24.6408 42.8982 24.9384L41.089 25.2977C40.3671 25.4411 39.863 26.0451 39.863 26.7666C39.8629 27.4882 40.3671 28.0923 41.089 28.2357ZM41.3794 26.7006L43.1885 26.3414C45.2636 25.9293 46.8764 24.3494 47.2971 22.3167L47.6638 20.5444C47.6705 20.5119 47.675 20.4904 47.7312 20.4904C47.7875 20.4904 47.7919 20.5119 47.7986 20.5444L48.1653 22.3167C48.586 24.3495 50.1988 25.9293 52.2739 26.3414L54.0831 26.7006C54.1163 26.7072 54.1382 26.7116 54.1382 26.7666C54.1382 26.8218 54.1162 26.8262 54.0831 26.8326L52.2739 27.1919C50.1987 27.604 48.5861 29.1839 48.1653 31.2166L47.7986 32.9888C47.7919 33.0214 47.7875 33.0428 47.7312 33.0428C47.675 33.0428 47.6705 33.0214 47.6638 32.9888L47.2971 31.2166C46.8764 29.1838 45.2636 27.604 43.1885 27.1919L41.3794 26.8326C41.3462 26.8261 41.3242 26.8217 41.3242 26.7666C41.3242 26.7116 41.3462 26.7073 41.3794 26.7006Z" fill="black"/>
<path d="M70.7021 47.1821L68.6897 46.7825C66.9907 46.4451 65.6702 45.1515 65.3258 43.4871L64.9178 41.5158C64.7628 40.7671 64.11 40.2443 63.3301 40.2443C62.5504 40.2443 61.8976 40.7671 61.7425 41.5158L61.3345 43.4871C60.9901 45.1515 59.6696 46.4451 57.9705 46.7825L55.9582 47.1821C55.194 47.3338 54.6602 47.9734 54.6602 48.7373C54.6602 49.5012 55.1939 50.1406 55.9582 50.2924L57.9705 50.6921C59.6696 51.0295 60.9901 52.323 61.3345 53.9875L61.7425 55.9588C61.8976 56.7074 62.5503 57.2303 63.3301 57.2303C64.1099 57.2303 64.7627 56.7074 64.9178 55.9588L65.3258 53.9875C65.6702 52.323 66.9907 51.0295 68.6897 50.6921L70.7021 50.2924C71.4664 50.1407 72.0001 49.5012 72.0001 48.7373C72.0001 47.9734 71.4663 47.3338 70.7021 47.1821ZM70.4117 48.8894L68.3994 49.2891C66.1236 49.7411 64.3548 51.4737 63.8936 53.7029L63.4856 55.6742C63.4779 55.7114 63.4597 55.7987 63.33 55.7987C63.2004 55.7987 63.1823 55.7114 63.1745 55.6742L62.7665 53.7029C62.3052 51.4737 60.5365 49.741 58.2606 49.2891L56.2484 48.8894C56.2103 48.8819 56.1213 48.8641 56.1213 48.7372C56.1213 48.6102 56.2103 48.5925 56.2484 48.5849L58.2606 48.1853C60.5365 47.7333 62.3053 46.0007 62.7665 43.7714L63.1745 41.8001C63.1822 41.7629 63.2004 41.6756 63.33 41.6756C63.4597 41.6756 63.4778 41.7629 63.4856 41.8001L63.8936 43.7714C64.3549 46.0008 66.1236 47.7334 68.3994 48.1853L70.4117 48.5849C70.4498 48.5924 70.5388 48.6102 70.5388 48.7372C70.5388 48.8642 70.4497 48.8819 70.4117 48.8894Z" fill="black"/>
<path d="M55.8487 40.4165C55.8752 40.1986 55.7983 39.9808 55.6399 39.8256L55.0339 39.232L71.244 22.6063C71.9583 21.8737 71.9445 20.6948 71.2132 19.9785C70.4726 19.2531 69.2967 19.2373 68.5363 19.9431L43.5683 43.1156L42.8963 42.4574C42.7219 42.2865 42.4713 42.2134 42.2297 42.263C41.9884 42.3126 41.7887 42.4781 41.699 42.7033C41.6864 42.7349 40.4261 45.8698 38.8378 47.4331L37.5761 48.5824L37.2477 48.2607C37.1008 48.1168 36.898 48.0412 36.691 48.0521C36.4836 48.0633 36.2908 48.1604 36.161 48.3192C32.3573 52.97 28.0214 57.2174 23.2737 60.9434C23.1116 61.0706 23.0124 61.2595 23.001 61.4626C22.9897 61.6658 23.0671 61.8642 23.214 62.008L28.0359 66.7315C28.1732 66.8661 28.3592 66.9411 28.5525 66.9411C28.5658 66.9411 28.5793 66.9407 28.5927 66.9401C28.8001 66.9289 28.9929 66.8318 29.1227 66.673C32.9263 62.0221 37.2623 57.7747 42.0099 54.0488C42.172 53.9215 42.2712 53.7327 42.2826 53.5296C42.294 53.3264 42.2165 53.128 42.0696 52.9842L42.0167 52.9324L49.0303 45.5433C50.6166 43.8721 55.455 40.972 55.5037 40.943C55.695 40.8285 55.8222 40.6345 55.8487 40.4165ZM30.3261 63.0383L28.4485 61.1989C28.1632 60.9194 27.7005 60.9194 27.4153 61.1989C27.13 61.4784 27.13 61.9316 27.4153 62.211L29.3709 64.1267C29.0765 64.4682 28.7838 64.8109 28.4953 65.1569L24.8214 61.5581C28.5628 58.5629 32.0444 55.2473 35.2106 51.6694L37.3137 53.7295C37.4563 53.8692 37.6434 53.9392 37.8303 53.9392C38.0172 53.9392 38.2043 53.8693 38.3469 53.7295C38.6322 53.4501 38.6322 52.9968 38.3469 52.7174L36.1618 50.5769C36.3721 50.3307 36.5813 50.0835 36.7887 49.835L40.4626 53.4338C36.8203 56.3495 33.4245 59.569 30.3261 63.0383ZM47.9604 44.5684L40.9828 51.9193L38.6102 49.5951L39.8429 48.4722C39.8494 48.4663 39.8557 48.4603 39.862 48.4542C41.0786 47.2625 42.0814 45.3683 42.624 44.2147L43.038 44.6203L43.9034 45.4681C44.046 45.6078 44.2331 45.6777 44.42 45.6777C44.6069 45.6777 44.794 45.6079 44.9366 45.4681C45.2219 45.1886 45.2219 44.7353 44.9366 44.456L44.6019 44.128L69.5413 20.9822C69.7226 20.8139 70.003 20.8176 70.1799 20.9908C70.3544 21.1617 70.3576 21.4428 70.1872 21.6177L54.0003 38.2195L53.6257 37.8526C53.3405 37.573 52.8779 37.5731 52.5925 37.8526C52.3072 38.132 52.3072 38.5852 52.5926 38.8647L53.4948 39.7485L53.4957 39.7494L53.9568 40.2011C52.4685 41.1251 49.2867 43.171 47.9604 44.5684Z" fill="black"/>
</g>
<defs>
<filter id="filter0_d" x="0" y="0" width="94" height="94" filterUnits="userSpaceOnUse" color-interpolation-filters="sRGB">
<feFlood flood-opacity="0" result="BackgroundImageFix"/>
<feColorMatrix in="SourceAlpha" type="matrix" values="0 0 0 0 0 0 0 0 0 0 0 0 0 0 0 0 0 0 127 0" result="hardAlpha"/>
<feOffset dy="4"/>
<feGaussianBlur stdDeviation="2"/>
<feComposite in2="hardAlpha" operator="out"/>
<feColorMatrix type="matrix" values="0 0 0 0 0 0 0 0 0 0 0 0 0 0 0 0 0 0 0.25 0"/>
<feBlend mode="normal" in2="BackgroundImageFix" result="effect1_dropShadow"/>
<feBlend mode="normal" in="SourceGraphic" in2="effect1_dropShadow" result="shape"/>
</filter>
<clipPath id="clip0">
<rect width="49" height="48" fill="white" transform="translate(23 19)"/>
</clipPath>
</defs>
</svg>
