<svg width="94" height="94" viewBox="0 0 94 94" fill="none" xmlns="http://www.w3.org/2000/svg">
<g filter="url(#filter0_d)">
<circle cx="47" cy="43" r="43" fill="#424242"/>
<circle cx="47" cy="43" r="41.5" stroke="black" stroke-width="3"/>
</g>
<path d="M69.3463 27.0023C69.098 26.8851 68.8039 26.9219 68.5917 27.0964C68.5495 27.1312 64.3037 30.572 58.6248 30.572C57.1092 30.572 55.5654 30.3282 54.0284 29.8484V25.2066C54.0284 24.995 53.934 24.7944 53.7709 24.6595C53.6398 24.5509 50.5048 21.9922 45.855 21.1334C45.4689 21.0624 45.099 21.3169 45.0279 21.7026C44.9566 22.0882 45.2115 22.4586 45.597 22.5297C49.1491 23.1859 51.799 24.9628 52.6084 25.5572V44.2125C50.8686 43.0924 47.3227 41.2399 42.8997 41.2399C38.4762 41.2399 34.9304 43.0925 33.1909 44.2126V25.5576C34.1939 24.8222 38.017 22.2788 42.8997 22.2788C43.2918 22.2788 43.6097 21.9609 43.6097 21.5687C43.6097 21.1765 43.2918 20.8587 42.8997 20.8587C38.4761 20.8587 34.9304 22.7113 33.1909 23.8314V21.4782C33.1908 20.0083 31.995 18.8125 30.5252 18.8125C29.0552 18.8125 27.8594 20.0083 27.8594 21.4782V51.4094C27.8594 51.8016 28.1772 52.1194 28.5694 52.1194C28.9616 52.1194 29.2794 51.8016 29.2794 51.4094V21.4782C29.2794 20.7913 29.8383 20.2325 30.5252 20.2325C31.2121 20.2325 31.7709 20.7913 31.7709 21.4782V65.5308C31.7709 65.6613 31.6647 65.7674 31.5342 65.7674H29.5161C29.3855 65.7674 29.2794 65.6613 29.2794 65.5308V54.2495C29.2794 53.8573 28.9616 53.5394 28.5694 53.5394C28.1772 53.5394 27.8594 53.8573 27.8594 54.2495V65.5308C27.8594 66.4443 28.6026 67.1875 29.516 67.1875H31.5342C32.4476 67.1875 33.1908 66.4443 33.1908 65.5308V45.9389C34.1938 45.2035 38.0169 42.66 42.8996 42.66C44.5814 42.66 46.1376 42.9618 47.4961 43.3876V47.7716C47.4961 47.9832 47.5905 48.1838 47.7536 48.3186C47.9411 48.4738 52.4199 52.1194 58.6247 52.1194C59.0169 52.1194 59.3348 51.8015 59.3348 51.4093C59.3348 51.0171 59.0169 50.6993 58.6247 50.6993C54.563 50.6993 51.2361 48.9398 49.6546 47.9248L53.5972 46.2407C53.5996 46.2397 53.6015 46.2381 53.6038 46.237C53.6093 46.2345 53.6151 46.2328 53.6206 46.2302C53.8694 46.113 54.0283 45.8627 54.0283 45.5878V31.3304C55.5629 31.7692 57.105 31.9919 58.6247 31.9919C63.0477 31.9919 66.5938 30.1394 68.3336 29.0193V47.4207C67.5237 48.0156 64.8745 49.7918 61.3233 50.448C60.9377 50.5193 60.6829 50.8897 60.7542 51.2752C60.8174 51.6172 61.1159 51.8563 61.4516 51.8563C61.4944 51.8563 61.5378 51.8524 61.5815 51.8444C66.2306 50.9852 69.365 48.427 69.4962 48.3185C69.6592 48.1836 69.7536 47.983 69.7536 47.7715V27.6441C69.7536 27.3693 69.5947 27.1196 69.3463 27.0023ZM51.8702 45.4344L48.9161 46.6962V43.9008C50.1734 44.4161 51.1853 44.9949 51.8702 45.4344Z" fill="white"/>
<defs>
<filter id="filter0_d" x="0" y="0" width="94" height="94" filterUnits="userSpaceOnUse" color-interpolation-filters="sRGB">
<feFlood flood-opacity="0" result="BackgroundImageFix"/>
<feColorMatrix in="SourceAlpha" type="matrix" values="0 0 0 0 0 0 0 0 0 0 0 0 0 0 0 0 0 0 127 0" result="hardAlpha"/>
<feOffset dy="4"/>
<feGaussianBlur stdDeviation="2"/>
<feComposite in2="hardAlpha" operator="out"/>
<feColorMatrix type="matrix" values="0 0 0 0 0 0 0 0 0 0 0 0 0 0 0 0 0 0 0.25 0"/>
<feBlend mode="normal" in2="BackgroundImageFix" result="effect1_dropShadow"/>
<feBlend mode="normal" in="SourceGraphic" in2="effect1_dropShadow" result="shape"/>
</filter>
</defs>
</svg>
